<svg width="32" height="32" viewBox="0 0 32 32" fill="none" xmlns="http://www.w3.org/2000/svg">
<path d="M4.55199 18.3706L2.66666 20.256L9.26532 23.084L12.0947 29.684L13.98 27.7986L13.0373 23.084L17.4547 18.6666L22.268 28.9386L24.0533 27.1533L22.4667 13.656L26.2373 9.88396C26.492 9.63797 26.6952 9.34372 26.8349 9.01837C26.9747 8.69303 27.0482 8.34311 27.0513 7.98903C27.0544 7.63495 26.9869 7.28381 26.8528 6.95609C26.7188 6.62836 26.5208 6.33062 26.2704 6.08024C26.02 5.82986 25.7223 5.63185 25.3945 5.49777C25.0668 5.36369 24.7157 5.29622 24.3616 5.2993C24.0075 5.30237 23.6576 5.37594 23.3322 5.51569C23.0069 5.65545 22.7126 5.8586 22.4667 6.1133L18.596 9.98396L5.09866 8.39596L3.41199 10.084L13.604 14.9773L9.26666 19.3146L4.55199 18.3706Z" fill="#DE8E59"/>
</svg>
